# xmcd
#
# Track frame offsets: 
#        150
#        23082
#        48442
#        73813
#        91045
#        111560
#        130502
#        154341
#        179787
#        197902
#        217141
#        243275
#        261599
#        283700
#        305238
#
# Disc length: 4223 seconds
#
# Revision: 0
# Processed by: cddbd v1.5.2PL0 Copyright (c) Steve Scherf et al.
# Submitted via: ExactAudioCopy v1.3
#
DISCID=ee107d0f
DTITLE=Blue Largo - Before The Devil Steals Your Soul
DYEAR=2018
DGENRE=Blues, Swing
TTITLE0=Wash Away
TTITLE1=If I Can Make It To Augusta
TTITLE2=Monrovia
TTITLE3=Same Race
TTITLE4=Before The Devil Steals Your Soul
TTITLE5=Bodas De Oro
TTITLE6=I'm Alive
TTITLE7=The Long Goodbye
TTITLE8=What Becomes Of The Broken Hearted
TTITLE9=Feeling Good
TTITLE10=Grinder's Groove
TTITLE11=Five Till Eight
TTITLE12=Every Time You Call My Name
TTITLE13=Work Song
TTITLE14=Lose Your Money (Bonus Track)
EXTD=
EXTT0=
EXTT1=
EXTT2=
EXTT3=
EXTT4=
EXTT5=
EXTT6=
EXTT7=
EXTT8=
EXTT9=
EXTT10=
EXTT11=
EXTT12=
EXTT13=
EXTT14=
PLAYORDER=
